<?xml version="1.0" encoding="UTF-8" standalone="no"?>
<svg
   width="24"
   height="23.999998"
   viewBox="0 0 24 23.999998"
   fill="none"
   version="1.1"
   id="svg2"
   xmlns="http://www.w3.org/2000/svg"
   xmlns:svg="http://www.w3.org/2000/svg">
  <g
     clip-path="url(#clip0_5_105)"
     id="g2">
    <path
       d="m 12,15 c 1.6569,0 3,-1.3431 3,-3 0,-1.6569 -1.3431,-3 -3,-3 -1.6569,0 -3,1.3431 -3,3 0,1.6569 1.3431,3 3,3 z"
       stroke="#ffffff"
       stroke-width="2"
       stroke-linecap="round"
       stroke-linejoin="round"
       id="path1" />
    <path
       d="m 19.4,15 c -0.1331,0.3016 -0.1728,0.6362 -0.114,0.9606 0.0588,0.3244 0.2135,0.6237 0.444,0.8594 l 0.06,0.06 c 0.186,0.1857 0.3335,0.4063 0.4341,0.6491 0.1007,0.2428 0.1525,0.5031 0.1525,0.7659 0,0.2628 -0.0518,0.5231 -0.1525,0.7659 -0.1006,0.2428 -0.2481,0.4634 -0.4341,0.6491 -0.1857,0.186 -0.4063,0.3335 -0.6491,0.4341 -0.2428,0.1007 -0.5031,0.1525 -0.7659,0.1525 -0.2628,0 -0.5231,-0.0518 -0.7659,-0.1525 C 17.3663,20.0435 17.1457,19.896 16.96,19.71 L 16.9,19.65 c -0.2357,-0.2305 -0.535,-0.3852 -0.8594,-0.444 -0.3244,-0.0588 -0.659,-0.0191 -0.9606,0.114 -0.2958,0.1268 -0.548,0.3372 -0.7257,0.6055 -0.1777,0.2683 -0.273,0.5827 -0.2743,0.9045 V 21 c 0,0.5304 -0.2107,1.0391 -0.5858,1.4142 C 13.1191,22.7893 12.6104,23 12.08,23 11.5496,23 11.0409,22.7893 10.6658,22.4142 10.2907,22.0391 10.08,21.5304 10.08,21 V 20.91 C 10.0723,20.579 9.96512,20.258 9.77251,19.9887 9.5799,19.7194 9.31074,19.5143 9,19.4 8.69838,19.2669 8.36381,19.2272 8.03941,19.286 7.71502,19.3448 7.41568,19.4995 7.18,19.73 L 7.12,19.79 C 6.93425,19.976 6.71368,20.1235 6.47088,20.2241 6.22808,20.3248 5.96783,20.3766 5.705,20.3766 5.44217,20.3766 5.18192,20.3248 4.93912,20.2241 4.69632,20.1235 4.47575,19.976 4.29,19.79 4.10405,19.6043 3.95653,19.3837 3.85588,19.1409 3.75523,18.8981 3.70343,18.6378 3.70343,18.375 c 0,-0.2628 0.0518,-0.5231 0.15245,-0.7659 C 3.95653,17.3663 4.10405,17.1457 4.29,16.96 L 4.35,16.9 C 4.58054,16.6643 4.73519,16.365 4.794,16.0406 4.85282,15.7162 4.81312,15.3816 4.68,15.08 4.55324,14.7842 4.34276,14.532 4.07447,14.3543 3.80618,14.1766 3.49179,14.0813 3.17,14.08 H 3 C 2.46957,14.08 1.96086,13.8693 1.58579,13.4942 1.21071,13.1191 1,12.6104 1,12.08 1,11.5496 1.21071,11.0409 1.58579,10.6658 1.96086,10.2907 2.46957,10.08 3,10.08 H 3.09 C 3.42099,10.0723 3.742,9.96512 4.0113,9.77251 4.28059,9.5799 4.48572,9.31074 4.6,9 4.73312,8.69838 4.77282,8.36381 4.714,8.03941 4.65519,7.71502 4.50054,7.41568 4.27,7.18 L 4.21,7.12 C 4.02405,6.93425 3.87653,6.71368 3.77588,6.47088 3.67523,6.22808 3.62343,5.96783 3.62343,5.705 3.62343,5.44217 3.67523,5.18192 3.77588,4.93912 3.87653,4.69632 4.02405,4.47575 4.21,4.29 4.39575,4.10405 4.61632,3.95653 4.85912,3.85588 5.10192,3.75523 5.36217,3.70343 5.625,3.70343 c 0.26283,0 0.52308,0.0518 0.76588,0.15245 C 6.63368,3.95653 6.85425,4.10405 7.04,4.29 L 7.1,4.35 C 7.33568,4.58054 7.63502,4.73519 7.95941,4.794 8.28381,4.85282 8.61838,4.81312 8.92,4.68 H 9 C 9.29577,4.55324 9.54802,4.34276 9.72569,4.07447 9.90337,3.80618 9.99872,3.49179 10,3.17 V 3 C 10,2.46957 10.2107,1.96086 10.5858,1.58579 10.9609,1.21071 11.4696,1 12,1 12.5304,1 13.0391,1.21071 13.4142,1.58579 13.7893,1.96086 14,2.46957 14,3 v 0.09 c 0.0013,0.32179 0.0966,0.63618 0.2743,0.90447 C 14.452,4.26276 14.7042,4.47324 15,4.6 15.3016,4.73312 15.6362,4.77282 15.9606,4.714 16.285,4.65519 16.5843,4.50054 16.82,4.27 l 0.06,-0.06 c 0.1857,-0.18595 0.4063,-0.33347 0.6491,-0.43412 0.2428,-0.10065 0.5031,-0.15245 0.7659,-0.15245 0.2628,0 0.5231,0.0518 0.7659,0.15245 0.2428,0.10065 0.4634,0.24817 0.6491,0.43412 0.186,0.18575 0.3335,0.40632 0.4341,0.64912 0.1007,0.2428 0.1525,0.50305 0.1525,0.76588 0,0.26283 -0.0518,0.52308 -0.1525,0.76588 C 20.0435,6.63368 19.896,6.85425 19.71,7.04 L 19.65,7.1 C 19.4195,7.33568 19.2648,7.63502 19.206,7.95941 19.1472,8.28381 19.1869,8.61838 19.32,8.92 V 9 c 0.1268,0.29577 0.3372,0.54802 0.6055,0.72569 C 20.1938,9.90337 20.5082,9.99872 20.83,10 H 21 c 0.5304,0 1.0391,0.2107 1.4142,0.5858 C 22.7893,10.9609 23,11.4696 23,12 23,12.5304 22.7893,13.0391 22.4142,13.4142 22.0391,13.7893 21.5304,14 21,14 h -0.09 c -0.3218,0.0013 -0.6362,0.0966 -0.9045,0.2743 C 19.7372,14.452 19.5268,14.7042 19.4,15 Z"
       stroke="#ffffff"
       stroke-width="2"
       stroke-linecap="round"
       stroke-linejoin="round"
       id="path2" />
  </g>
  <defs
     id="defs2">
    <clipPath
       id="clip0_5_105">
      <rect
         width="24"
         height="24"
         fill="#ffffff"
         id="rect2"
         x="0"
         y="0" />
    </clipPath>
  </defs>
</svg>
